<?xml version="1.0" encoding="UTF-8"?>
<svg id="Capa_1" xmlns="http://www.w3.org/2000/svg" version="1.1" viewBox="0 0 521.94 546.44">
  <!-- Generator: Adobe Illustrator 30.0.0, SVG Export Plug-In . SVG Version: 2.1.1 Build 123)  -->
  <defs>
    <style>
      .st0 {
        fill: #8c9091;
      }

      .st1 {
        fill: #2d2a26;
      }

      .st2 {
        fill: #e30613;
      }
    </style>
  </defs>
  <path class="st1" d="M259.49,420.49c-12.67,0-24.73-4.75-33.93-13.34L59.24,252.99c-20.25-18.72-21.44-50.44-2.69-70.69L210.61,15.98c9.47-10.1,22.89-15.98,36.71-15.98,12.67,0,24.78,4.78,34.01,13.32l166.34,154.16c9.72,9.04,15.45,21.41,15.93,34.78.47,13.32-4.22,26.14-13.27,35.94l-154.1,166.21c-9.47,10.2-22.84,16.08-36.74,16.08M247.32,23.02c-7.64,0-14.62,3.12-19.85,8.64L73.42,197.98c-10.08,10.88-9.42,28.05,1.48,38.1l166.34,154.16c4.9,4.64,11.46,7.18,18.24,7.18,7.64,0,14.63-3.01,19.83-8.64l154.08-166.29c4.92-5.25,7.49-12.14,7.19-19.37-.23-7.19-3.32-13.87-8.59-18.77L265.67,30.31c-5.03-4.72-11.51-7.29-18.35-7.29"/>
  <path class="st2" d="M216.31,546.44c-12.61,0-24.73-4.73-34.03-13.32L16.01,378.97c-20.25-18.74-21.46-50.43-2.69-70.66l154.13-166.27c9.4-10.18,22.82-16.08,36.69-16.08,12.64,0,24.7,4.77,34,13.34l166.29,154.18c9.8,9.05,15.43,21.38,15.99,34.73.5,13.36-4.22,26.16-13.32,35.93l-154.1,166.27c-9.4,10.2-22.77,16.03-36.69,16.03M204.15,149.02c-7.64,0-14.68,3.12-19.81,8.65L30.19,323.93c-10.06,10.96-9.43,28.08,1.51,38.18l166.26,154.05c5.02,4.7,11.51,7.26,18.34,7.26,7.59,0,14.68-3.07,19.8-8.65l154.08-166.31c4.9-5.28,7.44-12.11,7.21-19.3-.28-7.19-3.37-13.9-8.65-18.8l-166.21-154.15c-5.08-4.6-11.56-7.19-18.4-7.19"/>
  <path class="st0" d="M299.45,516.16l-166.26-154.03c-10.93-10.11-11.56-27.24-1.46-38.2l154.15-166.21c5.13-5.61,12.16-8.7,19.76-8.7,6.83,0,13.34,2.59,18.39,7.24l166.22,154.1c5.32,4.9,8.37,11.61,8.67,18.8.23,7.14-2.23,14.02-7.16,19.3l-154.16,166.31c-5.17,5.58-12.16,8.65-19.75,8.65-6.89,0-13.37-2.57-18.4-7.26M268.96,142.09l-154.12,166.21c-18.75,20.25-17.54,51.97,2.71,70.72l166.21,154.1c9.32,8.55,21.41,13.32,34.08,13.32,13.82,0,27.29-5.83,36.69-16.03l154.1-166.24c9.1-9.8,13.82-22.57,13.26-35.89-.45-13.4-6.13-25.76-15.98-34.81l-166.27-154.16c-9.3-8.62-21.41-13.34-34.03-13.34-13.93,0-27.27,5.88-36.67,16.11"/>
</svg>