<?xml version="1.0" encoding="UTF-8"?>
<svg id="Capa_1" xmlns="http://www.w3.org/2000/svg" version="1.1" viewBox="0 0 833.22 259.23">
  <!-- Generator: Adobe Illustrator 30.0.0, SVG Export Plug-In . SVG Version: 2.1.1 Build 123)  -->
  <defs>
    <style>
      .st0 {
        fill: #8c9091;
      }

      .st1 {
        fill: #2d2a26;
      }

      .st2 {
        fill: #e30613;
      }
    </style>
  </defs>
  <polygon class="st2" points="325.65 89.84 325.65 202.14 300.54 202.14 300.54 89.84 258.95 89.84 258.95 64.9 367.24 64.9 367.24 89.84 325.65 89.84"/>
  <path class="st2" d="M476.47,181.99c-13.46,13.45-29.58,20.15-48.4,20.15h-52.59V64.9h52.59c18.96,0,35.08,6.72,48.4,20.16,13.44,13.19,20.14,29.33,20.14,48.39s-6.7,35.1-20.14,48.55M458.87,102.67c-8.68-8.56-18.94-12.83-30.8-12.83h-27.67v87.22h27.67c11.86,0,22.12-4.27,30.8-12.85,8.55-8.55,12.82-18.79,12.82-30.76s-4.27-22.25-12.82-30.78"/>
  <path class="st2" d="M599.39,134.71c-8.66,7.46-18.93,11.16-30.77,11.16h-34.08v56.27h-24.92V64.9h59c11.74,0,21.93,3.67,30.6,10.99,9.29,8.08,13.9,17.91,13.9,29.49s-4.57,21.52-13.74,29.33M582.18,94.22c-3.91-2.92-8.42-4.38-13.55-4.38h-34.08v31.14h34.08c5.14,0,9.64-1.48,13.55-4.41,3.93-2.8,5.87-6.52,5.87-11.18s-1.93-8.34-5.87-11.17"/>
  <path class="st1" d="M635.64,162.87l-8.73,3.03c-5.22-5.18-11.83-7.75-19.87-7.75-6.91,0-12.44,1.57-16.57,4.75-4.1,3.22-6.16,7.33-6.16,12.37s2.06,9.42,6.16,12.56c4.13,3.2,9.69,4.78,16.73,4.78,8.15,0,14.78-2.66,19.91-7.95l8.13,4.36c-7.17,8.08-16.61,12.13-28.28,12.13-9.71,0-17.58-2.43-23.58-7.27-6-4.82-9.01-11.02-9.01-18.58s3.42-14.28,10.24-19.24c5.9-4.34,13.18-6.52,21.8-6.52,12.1,0,21.84,4.47,29.23,13.32"/>
  <path class="st1" d="M704.19,175.39c0,8.01-3.41,14.5-10.22,19.52-5.82,4.28-13.09,6.41-21.8,6.41s-16.02-2.14-21.88-6.41c-6.81-4.96-10.2-11.48-10.2-19.52s3.43-14.36,10.3-19.31c6.03-4.39,13.26-6.58,21.78-6.58s15.7,2.19,21.71,6.58c6.86,4.98,10.31,11.47,10.31,19.31M694.31,175.38c0-5.04-2.08-9.17-6.22-12.43-4.13-3.29-9.44-4.89-15.95-4.89s-11.95,1.65-16.08,4.94c-4.16,3.26-6.22,7.39-6.22,12.38s2.04,9.37,6.09,12.58c4.1,3.22,9.49,4.82,16.21,4.82s12.03-1.6,16.07-4.82c4.05-3.2,6.1-7.39,6.1-12.58"/>
  <path class="st1" d="M769.32,199.89h-10.9l-12.73-17.89h-24.23v17.89h-9.51v-48.74h39.4c5.18,0,9.28,1.39,12.37,4.17,3.05,2.83,4.6,6.59,4.6,11.29,0,8.07-4.07,13.03-12.15,14.82l13.14,18.46h.01ZM749.93,173.41c5.76,0,8.64-2.22,8.64-6.63,0-4.71-3.09-7.08-9.2-7.08h-27.9v13.71h28.46Z"/>
  <path class="st1" d="M816.29,151.15c5.18,0,9.27,1.39,12.35,4.17,3.04,2.83,4.58,6.59,4.58,11.29s-1.6,8.7-4.79,11.37c-3.19,2.67-7.79,4.01-13.76,4.01h-28.27v17.89h-9.53v-48.74h39.42ZM814.84,173.41c5.77,0,8.65-2.22,8.65-6.63,0-4.71-3.07-7.08-9.18-7.08h-27.89v13.71h28.43-.01Z"/>
  <path class="st1" d="M123.1,199.47c-6.01,0-11.73-2.25-16.09-6.33L28.11,120.01c-9.61-8.88-10.17-23.93-1.27-33.53L99.92,7.58c4.49-4.79,10.86-7.58,17.42-7.58,6.01,0,11.76,2.27,16.13,6.32l78.91,73.13c4.61,4.29,7.33,10.16,7.56,16.5.22,6.32-2,12.4-6.29,17.05l-73.1,78.85c-4.49,4.84-10.84,7.63-17.43,7.63M117.33,10.92c-3.62,0-6.94,1.48-9.42,4.1L34.83,93.92c-4.78,5.16-4.47,13.3.7,18.07l78.91,73.13c2.32,2.2,5.44,3.41,8.65,3.41,3.62,0,6.94-1.43,9.41-4.1l73.09-78.89c2.34-2.49,3.55-5.76,3.41-9.19-.11-3.41-1.57-6.58-4.08-8.91L126.02,14.37c-2.38-2.24-5.46-3.46-8.7-3.46"/>
  <path class="st2" d="M102.62,259.22c-5.98,0-11.73-2.24-16.14-6.32L7.6,179.77c-9.61-8.89-10.18-23.92-1.28-33.52l73.12-78.87c4.46-4.83,10.83-7.63,17.41-7.63,6,0,11.72,2.26,16.13,6.33l78.88,73.14c4.65,4.29,7.32,10.14,7.58,16.48.24,6.34-2,12.41-6.32,17.05l-73.1,78.88c-4.46,4.84-10.8,7.6-17.4,7.6M96.85,70.69c-3.62,0-6.96,1.48-9.4,4.1L14.33,153.66c-4.77,5.2-4.47,13.32.72,18.11l78.87,73.08c2.38,2.23,5.46,3.45,8.7,3.45,3.6,0,6.96-1.46,9.39-4.1l73.09-78.9c2.32-2.5,3.53-5.75,3.42-9.16-.13-3.41-1.6-6.59-4.1-8.92l-78.85-73.13c-2.41-2.18-5.49-3.41-8.73-3.41"/>
  <path class="st0" d="M142.06,244.86l-78.87-73.07c-5.19-4.79-5.48-12.92-.69-18.12l73.13-78.85c2.43-2.66,5.77-4.13,9.37-4.13,3.24,0,6.33,1.23,8.73,3.43l78.85,73.1c2.52,2.33,3.97,5.51,4.11,8.92.11,3.39-1.06,6.65-3.4,9.16l-73.13,78.9c-2.45,2.65-5.77,4.1-9.37,4.1-3.27,0-6.34-1.22-8.73-3.45M127.59,67.4l-73.11,78.85c-8.89,9.61-8.32,24.65,1.29,33.55l78.85,73.1c4.42,4.05,10.16,6.32,16.17,6.32,6.56,0,12.95-2.76,17.41-7.6l73.1-78.86c4.31-4.65,6.56-10.71,6.29-17.02-.21-6.36-2.91-12.22-7.58-16.51l-78.87-73.13c-4.41-4.09-10.16-6.33-16.14-6.33-6.61,0-12.94,2.79-17.4,7.64"/>
</svg>